<svg xmlns="http://www.w3.org/2000/svg" xmlns:xlink="http://www.w3.org/1999/xlink" width="60" zoomAndPan="magnify" viewBox="0 0 45 44.999999" height="60" preserveAspectRatio="xMidYMid meet" version="1.0"><defs><g/><clipPath id="334397c8d0"><rect x="0" width="17" y="0" height="28"/></clipPath><clipPath id="230f587d3b"><path d="M 0.640625 0.800781 L 28 0.800781 L 28 24 L 0.640625 24 Z M 0.640625 0.800781 " clip-rule="nonzero"/></clipPath><clipPath id="d27e6bda1f"><rect x="0" width="29" y="0" height="28"/></clipPath></defs><g transform="matrix(1, 0, 0, 1, 11, 5)"><g clip-path="url(#334397c8d0)"><g fill="#ffffff" fill-opacity="1"><g transform="translate(0.992518, 20.657428)"><g><path d="M 8.351562 0.6875 C 7.097656 0.6875 5.929688 0.449219 4.851562 -0.0234375 C 3.792969 -0.488281 2.875 -1.0625 2.101562 -1.746094 C 1.328125 -2.425781 0.753906 -3.085938 0.378906 -3.726562 L 0.277344 -3.898438 L 1.054688 -6.78125 L 1.921875 -6.78125 L 2.371094 -5.886719 C 2.574219 -5.480469 2.867188 -4.96875 3.253906 -4.351562 C 3.632812 -3.742188 4.09375 -3.132812 4.628906 -2.519531 C 5.148438 -1.925781 5.726562 -1.429688 6.371094 -1.035156 C 6.976562 -0.664062 7.636719 -0.476562 8.351562 -0.476562 C 8.613281 -0.476562 8.957031 -0.523438 9.375 -0.621094 C 9.789062 -0.71875 10.214844 -0.882812 10.648438 -1.117188 C 11.058594 -1.335938 11.402344 -1.632812 11.671875 -2.003906 C 11.925781 -2.347656 12.054688 -2.785156 12.054688 -3.308594 C 12.054688 -4.058594 11.832031 -4.710938 11.382812 -5.273438 C 10.902344 -5.875 10.296875 -6.398438 9.5625 -6.84375 C 8.8125 -7.296875 8.050781 -7.660156 7.277344 -7.929688 C 6.332031 -8.273438 5.449219 -8.695312 4.625 -9.195312 C 3.773438 -9.710938 3.078125 -10.347656 2.539062 -11.113281 C 1.984375 -11.90625 1.703125 -12.839844 1.703125 -13.921875 C 1.703125 -14.984375 1.972656 -15.910156 2.507812 -16.699219 C 3.039062 -17.476562 3.742188 -18.082031 4.625 -18.511719 C 5.496094 -18.941406 6.441406 -19.152344 7.460938 -19.152344 C 8.710938 -19.152344 9.757812 -18.984375 10.59375 -18.644531 C 11.433594 -18.304688 12.132812 -17.855469 12.6875 -17.289062 C 13.226562 -16.742188 13.671875 -16.140625 14.027344 -15.488281 L 14.117188 -15.320312 L 13.339844 -12.472656 L 12.390625 -12.472656 L 12.113281 -13.359375 C 12.007812 -13.710938 11.832031 -14.152344 11.597656 -14.6875 C 11.367188 -15.207031 11.054688 -15.722656 10.667969 -16.234375 C 10.289062 -16.730469 9.832031 -17.148438 9.296875 -17.484375 C 8.785156 -17.804688 8.175781 -17.964844 7.460938 -17.964844 C 7.214844 -17.964844 6.871094 -17.914062 6.433594 -17.816406 C 6.003906 -17.722656 5.578125 -17.558594 5.152344 -17.328125 C 4.75 -17.105469 4.40625 -16.808594 4.125 -16.433594 C 3.863281 -16.089844 3.734375 -15.65625 3.734375 -15.128906 C 3.734375 -14.398438 3.957031 -13.75 4.40625 -13.179688 C 4.886719 -12.570312 5.492188 -12.054688 6.226562 -11.628906 C 6.992188 -11.1875 7.765625 -10.820312 8.542969 -10.535156 C 9.480469 -10.210938 10.363281 -9.792969 11.191406 -9.285156 C 12.042969 -8.761719 12.734375 -8.121094 13.273438 -7.367188 C 13.832031 -6.585938 14.109375 -5.644531 14.109375 -4.542969 C 14.109375 -3.480469 13.835938 -2.554688 13.289062 -1.765625 C 12.753906 -0.988281 12.046875 -0.382812 11.179688 0.046875 C 10.316406 0.472656 9.375 0.6875 8.351562 0.6875 Z M 8.351562 -0.265625 C 9.226562 -0.265625 10.027344 -0.445312 10.757812 -0.808594 C 11.480469 -1.164062 12.0625 -1.664062 12.507812 -2.304688 C 12.941406 -2.933594 13.15625 -3.679688 13.15625 -4.542969 C 13.15625 -5.441406 12.9375 -6.199219 12.496094 -6.816406 C 12.035156 -7.464844 11.433594 -8.015625 10.691406 -8.472656 C 9.925781 -8.945312 9.097656 -9.335938 8.214844 -9.640625 C 7.382812 -9.949219 6.5625 -10.335938 5.75 -10.804688 C 4.910156 -11.289062 4.210938 -11.886719 3.65625 -12.589844 C 3.074219 -13.332031 2.78125 -14.179688 2.78125 -15.128906 C 2.78125 -15.867188 2.976562 -16.492188 3.363281 -17.007812 C 3.726562 -17.492188 4.171875 -17.875 4.695312 -18.160156 C 5.199219 -18.4375 5.710938 -18.632812 6.226562 -18.746094 C 6.734375 -18.859375 7.144531 -18.917969 7.460938 -18.917969 C 8.355469 -18.917969 9.136719 -18.707031 9.800781 -18.292969 C 10.4375 -17.894531 10.980469 -17.398438 11.425781 -16.808594 C 11.859375 -16.238281 12.207031 -15.660156 12.464844 -15.074219 C 12.71875 -14.503906 12.90625 -14.027344 13.023438 -13.644531 L 13.195312 -13.089844 L 12.738281 -12.949219 L 12.738281 -13.425781 L 12.976562 -13.425781 L 12.976562 -12.949219 L 12.515625 -13.074219 L 13.148438 -15.386719 L 13.605469 -15.261719 L 13.1875 -15.035156 C 12.878906 -15.609375 12.484375 -16.136719 12.007812 -16.621094 C 11.546875 -17.09375 10.953125 -17.472656 10.238281 -17.761719 C 9.515625 -18.054688 8.589844 -18.199219 7.460938 -18.199219 C 6.589844 -18.199219 5.78125 -18.019531 5.042969 -17.65625 C 4.3125 -17.300781 3.730469 -16.804688 3.296875 -16.164062 C 2.871094 -15.535156 2.65625 -14.789062 2.65625 -13.921875 C 2.65625 -13.042969 2.878906 -12.289062 3.320312 -11.660156 C 3.777344 -11.007812 4.378906 -10.457031 5.117188 -10.007812 C 5.890625 -9.542969 6.714844 -9.148438 7.589844 -8.828125 C 8.425781 -8.539062 9.25 -8.148438 10.058594 -7.65625 C 10.886719 -7.15625 11.574219 -6.558594 12.128906 -5.867188 C 12.714844 -5.132812 13.007812 -4.277344 13.007812 -3.308594 C 13.007812 -2.574219 12.816406 -1.953125 12.441406 -1.4375 C 12.082031 -0.953125 11.636719 -0.5625 11.101562 -0.277344 C 10.589844 -0.00390625 10.085938 0.191406 9.589844 0.304688 C 9.097656 0.417969 8.6875 0.476562 8.351562 0.476562 C 7.457031 0.476562 6.628906 0.242188 5.871094 -0.226562 C 5.148438 -0.671875 4.492188 -1.226562 3.910156 -1.894531 C 3.34375 -2.542969 2.855469 -3.195312 2.445312 -3.84375 C 2.042969 -4.488281 1.734375 -5.027344 1.519531 -5.460938 L 1.203125 -6.089844 L 1.628906 -6.304688 L 1.628906 -5.828125 L 1.417969 -5.828125 L 1.417969 -6.304688 L 1.878906 -6.179688 L 1.246094 -3.84375 L 0.789062 -3.964844 L 1.199219 -4.207031 C 1.523438 -3.65625 2.035156 -3.074219 2.730469 -2.457031 C 3.429688 -1.84375 4.265625 -1.324219 5.234375 -0.894531 C 6.191406 -0.476562 7.230469 -0.265625 8.351562 -0.265625 Z M 8.351562 -0.265625 "/></g></g></g><g fill="#9546fc" fill-opacity="1"><g transform="translate(0.992518, 20.657428)"><g><path d="M 8.359375 0.203125 C 7.160156 0.203125 6.050781 -0.015625 5.03125 -0.453125 C 4.019531 -0.898438 3.144531 -1.445312 2.40625 -2.09375 C 1.675781 -2.75 1.132812 -3.375 0.78125 -3.96875 L 1.421875 -6.296875 L 1.625 -6.296875 C 1.625 -6.296875 1.726562 -6.085938 1.9375 -5.671875 C 2.15625 -5.253906 2.457031 -4.726562 2.84375 -4.09375 C 3.238281 -3.46875 3.710938 -2.835938 4.265625 -2.203125 C 4.816406 -1.578125 5.429688 -1.050781 6.109375 -0.625 C 6.796875 -0.207031 7.546875 0 8.359375 0 C 8.648438 0 9.023438 -0.0507812 9.484375 -0.15625 C 9.941406 -0.257812 10.40625 -0.4375 10.875 -0.6875 C 11.34375 -0.945312 11.734375 -1.289062 12.046875 -1.71875 C 12.367188 -2.144531 12.53125 -2.675781 12.53125 -3.3125 C 12.53125 -4.164062 12.269531 -4.914062 11.75 -5.5625 C 11.238281 -6.21875 10.59375 -6.78125 9.8125 -7.25 C 9.03125 -7.71875 8.238281 -8.09375 7.4375 -8.375 C 6.519531 -8.707031 5.660156 -9.113281 4.859375 -9.59375 C 4.066406 -10.082031 3.421875 -10.679688 2.921875 -11.390625 C 2.429688 -12.097656 2.1875 -12.941406 2.1875 -13.921875 C 2.1875 -14.878906 2.425781 -15.710938 2.90625 -16.421875 C 3.382812 -17.140625 4.023438 -17.691406 4.828125 -18.078125 C 5.640625 -18.472656 6.515625 -18.671875 7.453125 -18.671875 C 8.648438 -18.671875 9.632812 -18.515625 10.40625 -18.203125 C 11.1875 -17.890625 11.832031 -17.472656 12.34375 -16.953125 C 12.851562 -16.429688 13.273438 -15.867188 13.609375 -15.265625 L 12.96875 -12.953125 L 12.734375 -12.953125 C 12.734375 -12.953125 12.675781 -13.132812 12.5625 -13.5 C 12.445312 -13.863281 12.265625 -14.320312 12.015625 -14.875 C 11.773438 -15.425781 11.445312 -15.972656 11.03125 -16.515625 C 10.625 -17.054688 10.128906 -17.507812 9.546875 -17.875 C 8.960938 -18.25 8.265625 -18.4375 7.453125 -18.4375 C 7.179688 -18.4375 6.804688 -18.382812 6.328125 -18.28125 C 5.859375 -18.175781 5.390625 -17.992188 4.921875 -17.734375 C 4.460938 -17.484375 4.066406 -17.144531 3.734375 -16.71875 C 3.410156 -16.289062 3.25 -15.757812 3.25 -15.125 C 3.25 -14.289062 3.507812 -13.539062 4.03125 -12.875 C 4.550781 -12.21875 5.203125 -11.660156 5.984375 -11.203125 C 6.773438 -10.753906 7.570312 -10.382812 8.375 -10.09375 C 9.289062 -9.769531 10.144531 -9.363281 10.9375 -8.875 C 11.738281 -8.382812 12.382812 -7.789062 12.875 -7.09375 C 13.375 -6.394531 13.625 -5.546875 13.625 -4.546875 C 13.625 -3.578125 13.378906 -2.738281 12.890625 -2.03125 C 12.398438 -1.320312 11.753906 -0.769531 10.953125 -0.375 C 10.160156 0.0078125 9.296875 0.203125 8.359375 0.203125 Z M 8.359375 0.203125 "/></g></g></g></g></g><g transform="matrix(1, 0, 0, 1, 8, 16)"><g clip-path="url(#d27e6bda1f)"><g clip-path="url(#230f587d3b)"><g fill="#ffffff" fill-opacity="1"><g transform="translate(1.328305, 22.711688)"><g><path d="M 9.1875 -8.851562 C 11.269531 -8.980469 13.226562 -9.34375 15.058594 -9.933594 C 16.875 -10.523438 18.671875 -11.371094 20.441406 -12.484375 C 20.96875 -12.816406 21.511719 -13.21875 22.078125 -13.691406 C 22.71875 -14.226562 23.289062 -14.78125 23.792969 -15.347656 C 24.367188 -15.992188 24.808594 -16.613281 25.121094 -17.210938 C 25.460938 -17.859375 25.628906 -18.453125 25.628906 -18.988281 C 25.628906 -20.160156 24.921875 -20.746094 23.507812 -20.746094 C 22.304688 -20.746094 20.902344 -20.441406 19.304688 -19.835938 C 17.953125 -19.324219 16.632812 -18.671875 15.351562 -17.875 L 15.09375 -17.714844 L 14.839844 -17.882812 C 13.941406 -18.476562 12.933594 -18.921875 11.820312 -19.222656 C 10.773438 -19.5 9.667969 -19.640625 8.507812 -19.640625 C 7.277344 -19.640625 6.148438 -19.492188 5.125 -19.1875 C 3.804688 -18.808594 2.734375 -18.207031 1.917969 -17.386719 C 1.007812 -16.472656 0.554688 -15.40625 0.554688 -14.183594 C 0.554688 -12.46875 1.433594 -11.121094 3.195312 -10.148438 C 3.941406 -9.734375 4.804688 -9.410156 5.785156 -9.179688 C 6.660156 -8.972656 7.546875 -8.855469 8.445312 -8.828125 L 8.871094 -8.816406 L 8.90625 -8.390625 C 8.945312 -7.902344 9.023438 -7.511719 9.140625 -7.207031 C 9.273438 -6.863281 9.488281 -6.554688 9.777344 -6.285156 C 10.117188 -5.96875 10.496094 -5.726562 10.914062 -5.558594 C 11.328125 -5.390625 11.761719 -5.308594 12.210938 -5.308594 C 13.324219 -5.308594 14.566406 -5.640625 15.9375 -6.300781 C 16.96875 -6.796875 18.109375 -7.503906 19.363281 -8.421875 L 20.042969 -7.773438 C 19.964844 -7.65625 19.84375 -7.476562 19.6875 -7.234375 C 18.902344 -6.039062 18.289062 -5.15625 17.84375 -4.578125 C 17.078125 -3.589844 16.324219 -2.804688 15.578125 -2.222656 C 14.761719 -1.582031 13.941406 -1.066406 13.109375 -0.675781 C 12.074219 -0.1875 11.109375 0.0546875 10.214844 0.0546875 C 9.949219 0.0546875 9.679688 0.0234375 9.398438 -0.0429688 C 9.09375 -0.117188 8.816406 -0.222656 8.570312 -0.359375 C 8.273438 -0.523438 8.039062 -0.726562 7.871094 -0.960938 C 7.664062 -1.246094 7.5625 -1.566406 7.5625 -1.917969 C 7.5625 -2.171875 7.636719 -2.425781 7.789062 -2.679688 C 8.003906 -3.03125 8.277344 -3.207031 8.613281 -3.207031 C 8.726562 -3.207031 8.890625 -3.160156 9.109375 -3.070312 C 9.265625 -3.003906 9.351562 -2.972656 9.375 -2.972656 C 9.441406 -2.972656 9.496094 -2.988281 9.539062 -3.027344 C 9.566406 -3.054688 9.582031 -3.085938 9.582031 -3.125 C 9.582031 -3.164062 9.5625 -3.199219 9.519531 -3.226562 C 9.441406 -3.28125 9.339844 -3.304688 9.21875 -3.304688 C 8.960938 -3.304688 8.71875 -3.164062 8.492188 -2.875 C 8.382812 -2.738281 8.296875 -2.585938 8.234375 -2.417969 C 8.175781 -2.257812 8.144531 -2.109375 8.144531 -1.96875 C 8.144531 -1.457031 8.394531 -1.070312 8.894531 -0.820312 C 9.347656 -0.589844 9.925781 -0.476562 10.636719 -0.476562 C 13.460938 -0.476562 15.746094 -1.496094 17.496094 -3.539062 C 17.769531 -3.851562 18.175781 -4.457031 18.710938 -5.355469 C 18.878906 -5.640625 19.003906 -5.847656 19.082031 -5.976562 C 19.175781 -6.125 19.316406 -6.34375 19.503906 -6.632812 C 20.476562 -8.164062 21.183594 -9.320312 21.617188 -10.105469 L 21.625 -10.121094 C 21.757812 -10.335938 21.820312 -10.457031 21.820312 -10.480469 C 21.820312 -10.425781 21.847656 -10.375 21.902344 -10.320312 C 21.957031 -10.265625 22.007812 -10.238281 22.0625 -10.238281 C 22.089844 -10.238281 22.113281 -10.242188 22.132812 -10.25 C 22.128906 -10.246094 22.117188 -10.242188 22.105469 -10.234375 C 22.058594 -10.210938 22 -10.175781 21.925781 -10.121094 C 21.824219 -10.046875 21.648438 -9.90625 21.410156 -9.703125 C 21.136719 -9.476562 20.953125 -9.332031 20.847656 -9.265625 L 20.589844 -9.664062 L 20.859375 -9.273438 C 19.21875 -8.152344 17.808594 -7.273438 16.625 -6.640625 C 14.640625 -5.574219 13.0625 -5.039062 11.898438 -5.039062 C 10.964844 -5.039062 10.226562 -5.257812 9.679688 -5.695312 C 9.054688 -6.195312 8.742188 -6.921875 8.742188 -7.878906 L 8.742188 -8.824219 Z M 9.246094 -7.902344 L 9.21875 -8.378906 L 9.695312 -8.378906 L 9.695312 -7.878906 C 9.695312 -6.621094 10.429688 -5.992188 11.898438 -5.992188 C 12.90625 -5.992188 14.332031 -6.488281 16.175781 -7.476562 C 17.328125 -8.097656 18.710938 -8.957031 20.320312 -10.058594 L 20.328125 -10.0625 L 20.332031 -10.066406 C 20.402344 -10.109375 20.558594 -10.234375 20.796875 -10.433594 C 21.054688 -10.652344 21.246094 -10.804688 21.371094 -10.890625 C 21.644531 -11.09375 21.875 -11.191406 22.0625 -11.191406 C 22.273438 -11.191406 22.441406 -11.125 22.574219 -10.992188 C 22.707031 -10.859375 22.773438 -10.6875 22.773438 -10.480469 C 22.773438 -10.28125 22.664062 -9.996094 22.445312 -9.628906 L 22.035156 -9.875 L 22.453125 -9.644531 C 22.003906 -8.839844 21.289062 -7.667969 20.304688 -6.121094 C 20.121094 -5.832031 19.980469 -5.617188 19.890625 -5.472656 C 19.816406 -5.351562 19.695312 -5.148438 19.527344 -4.871094 C 19.257812 -4.414062 19.050781 -4.074219 18.90625 -3.851562 C 18.652344 -3.464844 18.425781 -3.152344 18.21875 -2.921875 C 16.28125 -0.65625 13.75 0.476562 10.636719 0.476562 C 9.777344 0.476562 9.050781 0.328125 8.464844 0.03125 C 8.078125 -0.164062 7.78125 -0.417969 7.566406 -0.726562 C 7.316406 -1.082031 7.191406 -1.496094 7.191406 -1.96875 C 7.191406 -2.222656 7.242188 -2.484375 7.34375 -2.753906 C 7.441406 -3.011719 7.574219 -3.25 7.746094 -3.464844 C 7.929688 -3.699219 8.136719 -3.886719 8.371094 -4.019531 C 8.640625 -4.179688 8.925781 -4.257812 9.21875 -4.257812 C 9.535156 -4.257812 9.8125 -4.175781 10.050781 -4.015625 C 10.375 -3.800781 10.535156 -3.503906 10.535156 -3.125 C 10.535156 -2.804688 10.414062 -2.535156 10.171875 -2.316406 C 9.949219 -2.117188 9.683594 -2.019531 9.375 -2.019531 C 9.226562 -2.019531 9.011719 -2.078125 8.738281 -2.191406 C 8.667969 -2.222656 8.617188 -2.242188 8.589844 -2.25 C 8.578125 -2.257812 8.570312 -2.257812 8.566406 -2.257812 C 8.578125 -2.257812 8.59375 -2.253906 8.613281 -2.253906 C 8.640625 -2.253906 8.660156 -2.257812 8.667969 -2.265625 C 8.648438 -2.25 8.628906 -2.226562 8.605469 -2.183594 C 8.542969 -2.085938 8.511719 -1.996094 8.511719 -1.917969 C 8.511719 -1.625 8.6875 -1.382812 9.03125 -1.191406 C 9.386719 -0.996094 9.78125 -0.894531 10.214844 -0.894531 C 10.96875 -0.894531 11.796875 -1.109375 12.707031 -1.539062 C 13.46875 -1.894531 14.230469 -2.375 14.992188 -2.976562 C 15.675781 -3.507812 16.375 -4.238281 17.089844 -5.160156 C 17.519531 -5.71875 18.121094 -6.582031 18.890625 -7.753906 C 19.050781 -8 19.167969 -8.179688 19.25 -8.300781 L 19.644531 -8.035156 L 19.925781 -7.652344 C 18.625 -6.703125 17.433594 -5.964844 16.351562 -5.445312 C 14.847656 -4.71875 13.46875 -4.355469 12.210938 -4.355469 C 11.640625 -4.355469 11.089844 -4.464844 10.558594 -4.675781 C 10.03125 -4.886719 9.554688 -5.191406 9.132812 -5.585938 C 8.730469 -5.957031 8.4375 -6.382812 8.253906 -6.863281 C 8.101562 -7.25 8.003906 -7.734375 7.957031 -8.3125 L 8.429688 -8.351562 L 8.417969 -7.875 C 7.453125 -7.90625 6.503906 -8.03125 5.566406 -8.253906 C 4.5 -8.503906 3.554688 -8.859375 2.734375 -9.3125 C 1.777344 -9.84375 1.039062 -10.484375 0.511719 -11.242188 C -0.09375 -12.105469 -0.398438 -13.085938 -0.398438 -14.183594 C -0.398438 -15.667969 0.148438 -16.960938 1.242188 -18.058594 C 2.175781 -18.996094 3.378906 -19.675781 4.855469 -20.101562 C 5.964844 -20.429688 7.183594 -20.59375 8.507812 -20.59375 C 9.753906 -20.59375 10.9375 -20.441406 12.066406 -20.140625 C 13.28125 -19.816406 14.378906 -19.328125 15.363281 -18.675781 L 15.101562 -18.28125 L 14.851562 -18.683594 C 16.183594 -19.511719 17.558594 -20.191406 18.96875 -20.726562 C 20.675781 -21.375 22.1875 -21.695312 23.507812 -21.695312 C 24.402344 -21.695312 25.113281 -21.492188 25.648438 -21.082031 C 26.269531 -20.605469 26.582031 -19.90625 26.582031 -18.988281 C 26.582031 -17.703125 25.890625 -16.277344 24.503906 -14.714844 C 23.972656 -14.113281 23.367188 -13.527344 22.6875 -12.960938 C 22.09375 -12.460938 21.511719 -12.035156 20.949219 -11.679688 C 19.109375 -10.523438 17.246094 -9.640625 15.351562 -9.027344 C 13.441406 -8.410156 11.410156 -8.035156 9.246094 -7.902344 Z M 26.265625 -19.015625 C 26.265625 -17.808594 25.597656 -16.453125 24.253906 -14.953125 C 23.738281 -14.371094 23.15625 -13.8125 22.507812 -13.269531 C 21.929688 -12.785156 21.375 -12.378906 20.84375 -12.046875 C 19.148438 -10.988281 17.3125 -10.121094 15.335938 -9.449219 C 13.183594 -8.71875 11.183594 -8.335938 9.332031 -8.296875 L 8.699219 -8.28125 L 8.863281 -8.894531 C 9.097656 -9.761719 9.359375 -10.484375 9.644531 -11.0625 C 9.941406 -11.65625 10.367188 -12.304688 10.917969 -13.007812 C 12.195312 -14.640625 13.738281 -16.136719 15.550781 -17.503906 L 15.894531 -17.761719 L 16.1875 -17.449219 C 16.726562 -16.863281 17.128906 -16.246094 17.386719 -15.597656 C 17.652344 -14.9375 17.785156 -14.210938 17.785156 -13.421875 C 17.785156 -13.277344 17.769531 -13.074219 17.742188 -12.8125 C 17.71875 -12.59375 17.703125 -12.4375 17.703125 -12.34375 C 17.703125 -12.394531 17.6875 -12.445312 17.652344 -12.5 C 17.578125 -12.609375 17.480469 -12.664062 17.359375 -12.664062 C 17.265625 -12.664062 17.183594 -12.636719 17.113281 -12.582031 C 17.078125 -12.558594 17.054688 -12.53125 17.035156 -12.503906 C 17.035156 -12.5 17.03125 -12.496094 17.03125 -12.492188 C 17.03125 -12.492188 17.03125 -12.492188 17.03125 -12.496094 C 17.035156 -12.503906 17.039062 -12.515625 17.046875 -12.535156 C 17.074219 -12.621094 17.101562 -12.746094 17.125 -12.914062 C 17.175781 -13.234375 17.199219 -13.480469 17.199219 -13.65625 C 17.199219 -14.308594 17.074219 -14.914062 16.828125 -15.472656 C 16.601562 -15.988281 16.25 -16.511719 15.773438 -17.042969 L 15.425781 -17.421875 L 15.835938 -17.738281 C 17.074219 -18.691406 18.3125 -19.480469 19.546875 -20.105469 C 21.191406 -20.9375 22.625 -21.355469 23.847656 -21.355469 C 24.53125 -21.355469 25.101562 -21.144531 25.558594 -20.71875 C 26.03125 -20.277344 26.265625 -19.710938 26.265625 -19.015625 Z M 25.316406 -19.015625 C 25.316406 -19.433594 25.179688 -19.769531 24.90625 -20.023438 C 24.636719 -20.277344 24.28125 -20.402344 23.847656 -20.402344 C 22.777344 -20.402344 21.484375 -20.019531 19.976562 -19.257812 C 18.796875 -18.660156 17.609375 -17.902344 16.417969 -16.984375 L 16.125 -17.359375 L 16.480469 -17.679688 C 17.027344 -17.074219 17.433594 -16.464844 17.699219 -15.859375 C 18 -15.175781 18.152344 -14.441406 18.152344 -13.65625 C 18.152344 -13.429688 18.125 -13.136719 18.066406 -12.769531 C 18.035156 -12.550781 17.996094 -12.375 17.949219 -12.238281 C 17.835938 -11.886719 17.640625 -11.710938 17.359375 -11.710938 C 17.140625 -11.710938 16.976562 -11.796875 16.859375 -11.972656 C 16.789062 -12.078125 16.753906 -12.203125 16.753906 -12.34375 C 16.753906 -12.472656 16.765625 -12.664062 16.792969 -12.914062 C 16.820312 -13.144531 16.832031 -13.3125 16.832031 -13.421875 C 16.832031 -14.089844 16.722656 -14.699219 16.503906 -15.242188 C 16.289062 -15.78125 15.949219 -16.300781 15.488281 -16.800781 L 15.835938 -17.125 L 16.125 -16.742188 C 14.378906 -15.429688 12.894531 -13.984375 11.667969 -12.417969 C 11.152344 -11.765625 10.765625 -11.171875 10.5 -10.636719 C 10.238281 -10.117188 10 -9.453125 9.785156 -8.648438 L 9.324219 -8.773438 L 9.3125 -9.246094 C 11.066406 -9.285156 12.96875 -9.652344 15.03125 -10.351562 C 16.9375 -11 18.707031 -11.832031 20.339844 -12.851562 C 20.832031 -13.160156 21.351562 -13.542969 21.894531 -14 C 22.507812 -14.511719 23.058594 -15.039062 23.542969 -15.585938 C 24.097656 -16.203125 24.523438 -16.796875 24.824219 -17.359375 C 25.152344 -17.972656 25.316406 -18.523438 25.316406 -19.015625 Z M 15.050781 -17.667969 C 14.183594 -16.996094 13.441406 -16.367188 12.820312 -15.777344 C 12.105469 -15.09375 11.496094 -14.414062 10.992188 -13.730469 C 9.867188 -12.199219 9.171875 -10.507812 8.902344 -8.652344 L 8.839844 -8.226562 L 8.410156 -8.242188 C 7.496094 -8.28125 6.59375 -8.402344 5.703125 -8.613281 C 4.675781 -8.851562 3.765625 -9.183594 2.976562 -9.609375 C 2.046875 -10.109375 1.324219 -10.714844 0.808594 -11.429688 C 0.214844 -12.25 -0.0820312 -13.1875 -0.0820312 -14.234375 C -0.0820312 -15.289062 0.207031 -16.230469 0.785156 -17.0625 C 1.292969 -17.792969 2 -18.410156 2.914062 -18.914062 C 3.707031 -19.355469 4.613281 -19.6875 5.628906 -19.917969 C 6.542969 -20.125 7.460938 -20.226562 8.378906 -20.226562 C 10.984375 -20.226562 13.199219 -19.632812 15.019531 -18.441406 L 15.582031 -18.074219 Z M 14.46875 -18.417969 L 14.761719 -18.042969 L 14.5 -17.644531 C 12.835938 -18.730469 10.792969 -19.273438 8.378906 -19.273438 C 7.53125 -19.273438 6.683594 -19.179688 5.839844 -18.988281 C 4.910156 -18.78125 4.089844 -18.476562 3.375 -18.082031 C 2.59375 -17.648438 1.988281 -17.128906 1.566406 -16.519531 C 1.101562 -15.851562 0.871094 -15.089844 0.871094 -14.234375 C 0.871094 -12.628906 1.722656 -11.367188 3.425781 -10.449219 C 4.144531 -10.0625 4.976562 -9.757812 5.921875 -9.539062 C 6.753906 -9.34375 7.597656 -9.230469 8.449219 -9.195312 L 8.429688 -8.71875 L 7.960938 -8.789062 C 8.25 -10.800781 9.007812 -12.636719 10.226562 -14.292969 C 10.761719 -15.023438 11.410156 -15.746094 12.164062 -16.464844 C 12.808594 -17.078125 13.578125 -17.730469 14.46875 -18.417969 Z M 14.46875 -18.417969 "/></g></g></g></g><g fill="#9546fc" fill-opacity="1"><g transform="translate(1.328305, 22.711688)"><g><path d="M 9.21875 -8.378906 C 13.472656 -8.640625 17.097656 -9.824219 20.695312 -12.082031 C 22.691406 -13.34375 26.105469 -16.386719 26.105469 -18.988281 C 26.105469 -20.589844 24.976562 -21.222656 23.507812 -21.222656 C 20.773438 -21.222656 17.386719 -19.699219 15.101562 -18.28125 C 13.15625 -19.566406 10.820312 -20.117188 8.507812 -20.117188 C 7.328125 -20.117188 6.144531 -19.988281 4.988281 -19.644531 C 2.441406 -18.910156 0.078125 -17.070312 0.078125 -14.183594 C 0.078125 -9.980469 4.988281 -8.457031 8.429688 -8.351562 C 8.507812 -7.378906 8.71875 -6.617188 9.453125 -5.9375 C 10.214844 -5.226562 11.1875 -4.832031 12.210938 -4.832031 C 14.839844 -4.832031 17.597656 -6.539062 19.644531 -8.035156 C 18.410156 -6.171875 17.070312 -3.992188 15.285156 -2.601562 C 13.917969 -1.523438 12.003906 -0.421875 10.214844 -0.421875 C 9.351562 -0.421875 8.035156 -0.867188 8.035156 -1.917969 C 8.035156 -2.207031 8.273438 -2.730469 8.613281 -2.730469 C 8.773438 -2.730469 9.140625 -2.496094 9.375 -2.496094 C 9.742188 -2.496094 10.058594 -2.757812 10.058594 -3.125 C 10.058594 -3.570312 9.613281 -3.78125 9.21875 -3.78125 C 8.351562 -3.78125 7.667969 -2.757812 7.667969 -1.96875 C 7.667969 -0.394531 9.375 0 10.636719 0 C 13.527344 0 15.96875 -1.023438 17.859375 -3.230469 C 18.4375 -3.886719 19.015625 -4.964844 19.488281 -5.726562 C 20.355469 -7.089844 21.246094 -8.457031 22.035156 -9.875 C 22.113281 -10.007812 22.296875 -10.320312 22.296875 -10.480469 C 22.296875 -10.636719 22.21875 -10.714844 22.0625 -10.714844 C 21.773438 -10.714844 20.957031 -9.902344 20.589844 -9.664062 C 18.515625 -8.246094 14.390625 -5.515625 11.898438 -5.515625 C 10.347656 -5.515625 9.21875 -6.199219 9.21875 -7.878906 Z M 25.789062 -19.015625 C 25.789062 -16.597656 22.480469 -13.628906 20.589844 -12.449219 C 17.4375 -10.480469 13.078125 -8.851562 9.324219 -8.773438 C 9.769531 -10.425781 10.214844 -11.347656 11.292969 -12.710938 C 12.605469 -14.390625 14.128906 -15.835938 15.835938 -17.125 C 16.835938 -16.046875 17.308594 -14.890625 17.308594 -13.421875 C 17.308594 -13.054688 17.230469 -12.683594 17.230469 -12.34375 C 17.230469 -12.265625 17.253906 -12.1875 17.359375 -12.1875 C 17.570312 -12.1875 17.675781 -13.445312 17.675781 -13.65625 C 17.675781 -15.152344 17.097656 -16.285156 16.125 -17.359375 C 18.070312 -18.855469 21.300781 -20.878906 23.847656 -20.878906 C 24.949219 -20.878906 25.789062 -20.144531 25.789062 -19.015625 Z M 14.761719 -18.042969 C 11.53125 -15.546875 9.035156 -12.894531 8.429688 -8.71875 C 5.199219 -8.851562 0.394531 -10.242188 0.394531 -14.234375 C 0.394531 -18.253906 5.070312 -19.75 8.378906 -19.75 C 10.609375 -19.75 12.871094 -19.277344 14.761719 -18.042969 Z M 14.761719 -18.042969 "/></g></g></g></g></g></svg>