<svg xmlns="http://www.w3.org/2000/svg" xmlns:xlink="http://www.w3.org/1999/xlink" width="60" zoomAndPan="magnify" viewBox="0 0 45 44.999999" height="60" preserveAspectRatio="xMidYMid meet" version="1.0"><defs><g/></defs><rect x="-4.5" width="54" fill="#ffffff" y="-4.5" height="53.999999" fill-opacity="1"/><rect x="-4.5" width="54" fill="#ffffff" y="-4.5" height="53.999999" fill-opacity="1"/><g fill="#9649f9" fill-opacity="1"><g transform="translate(9.711109, 25.372707)"><g><path d="M 9.9375 0.25 C 8.519531 0.25 7.207031 -0.015625 6 -0.546875 C 4.789062 -1.078125 3.75 -1.726562 2.875 -2.5 C 2 -3.269531 1.351562 -4.007812 0.9375 -4.71875 L 1.6875 -7.5 L 1.9375 -7.5 C 1.9375 -7.5 2.0625 -7.25 2.3125 -6.75 C 2.5625 -6.25 2.921875 -5.625 3.390625 -4.875 C 3.859375 -4.125 4.421875 -3.375 5.078125 -2.625 C 5.734375 -1.875 6.46875 -1.25 7.28125 -0.75 C 8.09375 -0.25 8.976562 0 9.9375 0 C 10.289062 0 10.738281 -0.0625 11.28125 -0.1875 C 11.820312 -0.3125 12.375 -0.523438 12.9375 -0.828125 C 13.5 -1.128906 13.96875 -1.535156 14.34375 -2.046875 C 14.71875 -2.554688 14.90625 -3.1875 14.90625 -3.9375 C 14.90625 -4.957031 14.597656 -5.851562 13.984375 -6.625 C 13.367188 -7.394531 12.597656 -8.0625 11.671875 -8.625 C 10.742188 -9.1875 9.800781 -9.632812 8.84375 -9.96875 C 7.757812 -10.363281 6.742188 -10.847656 5.796875 -11.421875 C 4.847656 -11.992188 4.078125 -12.703125 3.484375 -13.546875 C 2.890625 -14.390625 2.59375 -15.398438 2.59375 -16.578125 C 2.59375 -17.722656 2.878906 -18.71875 3.453125 -19.5625 C 4.023438 -20.40625 4.789062 -21.0625 5.75 -21.53125 C 6.707031 -22 7.75 -22.234375 8.875 -22.234375 C 10.289062 -22.234375 11.460938 -22.046875 12.390625 -21.671875 C 13.316406 -21.296875 14.082031 -20.800781 14.6875 -20.1875 C 15.300781 -19.570312 15.804688 -18.898438 16.203125 -18.171875 L 15.4375 -15.40625 L 15.15625 -15.40625 C 15.15625 -15.40625 15.085938 -15.625 14.953125 -16.0625 C 14.816406 -16.507812 14.601562 -17.0625 14.3125 -17.71875 C 14.019531 -18.375 13.628906 -19.023438 13.140625 -19.671875 C 12.648438 -20.316406 12.054688 -20.859375 11.359375 -21.296875 C 10.660156 -21.734375 9.832031 -21.953125 8.875 -21.953125 C 8.539062 -21.953125 8.09375 -21.890625 7.53125 -21.765625 C 6.96875 -21.640625 6.410156 -21.425781 5.859375 -21.125 C 5.304688 -20.820312 4.835938 -20.414062 4.453125 -19.90625 C 4.066406 -19.394531 3.875 -18.765625 3.875 -18.015625 C 3.875 -17.015625 4.179688 -16.117188 4.796875 -15.328125 C 5.410156 -14.546875 6.1875 -13.882812 7.125 -13.34375 C 8.0625 -12.800781 9.007812 -12.351562 9.96875 -12 C 11.050781 -11.625 12.066406 -11.144531 13.015625 -10.5625 C 13.960938 -9.976562 14.734375 -9.269531 15.328125 -8.4375 C 15.929688 -7.601562 16.234375 -6.59375 16.234375 -5.40625 C 16.234375 -4.257812 15.9375 -3.265625 15.34375 -2.421875 C 14.757812 -1.578125 13.992188 -0.921875 13.046875 -0.453125 C 12.097656 0.015625 11.0625 0.25 9.9375 0.25 Z M 9.9375 0.25 "/></g></g></g><g fill="#9649f9" fill-opacity="1"><g transform="translate(16.33176, 35.577493)"><g><path d="M 7.992188 -7.261719 C 11.679688 -7.492188 14.824219 -8.515625 17.941406 -10.472656 C 19.671875 -11.566406 22.632812 -14.207031 22.632812 -16.460938 C 22.632812 -17.851562 21.652344 -18.398438 20.378906 -18.398438 C 18.011719 -18.398438 15.074219 -17.078125 13.09375 -15.847656 C 11.40625 -16.964844 9.382812 -17.441406 7.378906 -17.441406 C 6.351562 -17.441406 5.328125 -17.328125 4.328125 -17.03125 C 2.117188 -16.394531 0.0664062 -14.800781 0.0664062 -12.296875 C 0.0664062 -8.652344 4.328125 -7.332031 7.308594 -7.242188 C 7.378906 -6.398438 7.558594 -5.738281 8.195312 -5.144531 C 8.859375 -4.53125 9.699219 -4.191406 10.589844 -4.191406 C 12.863281 -4.191406 15.257812 -5.667969 17.03125 -6.96875 C 15.960938 -5.351562 14.800781 -3.460938 13.253906 -2.253906 C 12.066406 -1.320312 10.40625 -0.363281 8.859375 -0.363281 C 8.105469 -0.363281 6.96875 -0.75 6.96875 -1.664062 C 6.96875 -1.914062 7.171875 -2.367188 7.46875 -2.367188 C 7.605469 -2.367188 7.925781 -2.164062 8.128906 -2.164062 C 8.449219 -2.164062 8.722656 -2.390625 8.722656 -2.710938 C 8.722656 -3.097656 8.332031 -3.277344 7.992188 -3.277344 C 7.242188 -3.277344 6.648438 -2.390625 6.648438 -1.707031 C 6.648438 -0.339844 8.128906 0 9.222656 0 C 11.726562 0 13.84375 -0.886719 15.484375 -2.800781 C 15.984375 -3.371094 16.484375 -4.304688 16.894531 -4.964844 C 17.648438 -6.148438 18.421875 -7.332031 19.105469 -8.5625 C 19.171875 -8.675781 19.332031 -8.949219 19.332031 -9.085938 C 19.332031 -9.222656 19.261719 -9.289062 19.125 -9.289062 C 18.875 -9.289062 18.171875 -8.585938 17.851562 -8.378906 C 16.054688 -7.148438 12.476562 -4.78125 10.316406 -4.78125 C 8.972656 -4.78125 7.992188 -5.375 7.992188 -6.832031 Z M 22.359375 -16.484375 C 22.359375 -14.390625 19.492188 -11.816406 17.851562 -10.792969 C 15.121094 -9.085938 11.339844 -7.671875 8.082031 -7.605469 C 8.46875 -9.039062 8.859375 -9.835938 9.792969 -11.019531 C 10.929688 -12.476562 12.25 -13.730469 13.730469 -14.847656 C 14.59375 -13.914062 15.003906 -12.910156 15.003906 -11.636719 C 15.003906 -11.316406 14.9375 -10.996094 14.9375 -10.703125 C 14.9375 -10.632812 14.960938 -10.566406 15.050781 -10.566406 C 15.234375 -10.566406 15.324219 -11.660156 15.324219 -11.839844 C 15.324219 -13.136719 14.824219 -14.117188 13.980469 -15.050781 C 15.664062 -16.347656 18.464844 -18.101562 20.675781 -18.101562 C 21.632812 -18.101562 22.359375 -17.464844 22.359375 -16.484375 Z M 12.796875 -15.644531 C 9.996094 -13.480469 7.832031 -11.179688 7.308594 -7.558594 C 4.507812 -7.671875 0.339844 -8.878906 0.339844 -12.339844 C 0.339844 -15.824219 4.394531 -17.121094 7.261719 -17.121094 C 9.199219 -17.121094 11.15625 -16.714844 12.796875 -15.644531 Z M 12.796875 -15.644531 "/></g></g></g></svg>