<svg xmlns="http://www.w3.org/2000/svg" xmlns:xlink="http://www.w3.org/1999/xlink" width="60" zoomAndPan="magnify" viewBox="0 0 45 44.999999" height="60" preserveAspectRatio="xMidYMid meet" version="1.0"><defs><g/><clipPath id="25854e2a06"><rect x="0" width="19" y="0" height="33"/></clipPath><clipPath id="79ace2afe6"><path d="M 1 1 L 29.679688 1 L 29.679688 25 L 1 25 Z M 1 1 " clip-rule="nonzero"/></clipPath><clipPath id="349f3c8950"><rect x="0" width="30" y="0" height="29"/></clipPath></defs><g transform="matrix(1, 0, 0, 1, 10, 0)"><g clip-path="url(#25854e2a06)"><g fill="#955ae2" fill-opacity="1"><g transform="translate(0.335482, 24.751531)"><g><path d="M 10.078125 0.25 C 8.640625 0.25 7.304688 -0.015625 6.078125 -0.546875 C 4.859375 -1.085938 3.800781 -1.75 2.90625 -2.53125 C 2.019531 -3.3125 1.367188 -4.0625 0.953125 -4.78125 L 1.71875 -7.609375 L 1.96875 -7.609375 C 1.96875 -7.609375 2.09375 -7.351562 2.34375 -6.84375 C 2.59375 -6.34375 2.957031 -5.707031 3.4375 -4.9375 C 3.914062 -4.175781 4.488281 -3.414062 5.15625 -2.65625 C 5.820312 -1.894531 6.566406 -1.257812 7.390625 -0.75 C 8.210938 -0.25 9.109375 0 10.078125 0 C 10.441406 0 10.894531 -0.0625 11.4375 -0.1875 C 11.988281 -0.3125 12.550781 -0.523438 13.125 -0.828125 C 13.695312 -1.140625 14.171875 -1.554688 14.546875 -2.078125 C 14.929688 -2.597656 15.125 -3.238281 15.125 -4 C 15.125 -5.03125 14.8125 -5.9375 14.1875 -6.71875 C 13.5625 -7.5 12.78125 -8.175781 11.84375 -8.75 C 10.90625 -9.320312 9.945312 -9.773438 8.96875 -10.109375 C 7.875 -10.515625 6.84375 -11.003906 5.875 -11.578125 C 4.914062 -12.160156 4.132812 -12.878906 3.53125 -13.734375 C 2.925781 -14.597656 2.625 -15.617188 2.625 -16.796875 C 2.625 -17.960938 2.914062 -18.972656 3.5 -19.828125 C 4.082031 -20.679688 4.859375 -21.347656 5.828125 -21.828125 C 6.804688 -22.304688 7.863281 -22.546875 9 -22.546875 C 10.4375 -22.546875 11.625 -22.351562 12.5625 -21.96875 C 13.507812 -21.59375 14.285156 -21.09375 14.890625 -20.46875 C 15.503906 -19.84375 16.015625 -19.160156 16.421875 -18.421875 L 15.65625 -15.625 L 15.375 -15.625 C 15.375 -15.625 15.304688 -15.847656 15.171875 -16.296875 C 15.035156 -16.742188 14.816406 -17.296875 14.515625 -17.953125 C 14.222656 -18.617188 13.828125 -19.28125 13.328125 -19.9375 C 12.835938 -20.59375 12.238281 -21.140625 11.53125 -21.578125 C 10.820312 -22.023438 9.976562 -22.25 9 -22.25 C 8.664062 -22.25 8.210938 -22.1875 7.640625 -22.0625 C 7.066406 -21.9375 6.5 -21.71875 5.9375 -21.40625 C 5.382812 -21.101562 4.910156 -20.691406 4.515625 -20.171875 C 4.128906 -19.660156 3.9375 -19.023438 3.9375 -18.265625 C 3.9375 -17.242188 4.242188 -16.335938 4.859375 -15.546875 C 5.484375 -14.753906 6.269531 -14.082031 7.21875 -13.53125 C 8.175781 -12.988281 9.140625 -12.535156 10.109375 -12.171875 C 11.210938 -11.796875 12.242188 -11.3125 13.203125 -10.71875 C 14.160156 -10.125 14.941406 -9.40625 15.546875 -8.5625 C 16.148438 -7.71875 16.453125 -6.691406 16.453125 -5.484375 C 16.453125 -4.316406 16.15625 -3.304688 15.5625 -2.453125 C 14.96875 -1.597656 14.191406 -0.929688 13.234375 -0.453125 C 12.273438 0.015625 11.222656 0.25 10.078125 0.25 Z M 10.078125 0.25 "/></g></g></g></g></g><g transform="matrix(1, 0, 0, 1, 8, 15)"><g clip-path="url(#349f3c8950)"><g clip-path="url(#79ace2afe6)"><g fill="#000000" fill-opacity="1"><g transform="translate(1.093318, 24.017492)"><g><path d="M 9.957031 -9.046875 C 14.550781 -9.332031 18.464844 -10.609375 22.351562 -13.046875 C 24.503906 -14.40625 28.191406 -17.699219 28.191406 -20.507812 C 28.191406 -22.234375 26.972656 -22.917969 25.382812 -22.917969 C 22.433594 -22.917969 18.777344 -21.273438 16.308594 -19.742188 C 14.210938 -21.128906 11.683594 -21.726562 9.1875 -21.726562 C 7.914062 -21.726562 6.636719 -21.582031 5.390625 -21.214844 C 2.636719 -20.421875 0.0859375 -18.4375 0.0859375 -15.316406 C 0.0859375 -10.777344 5.390625 -9.132812 9.105469 -9.019531 C 9.1875 -7.96875 9.417969 -7.148438 10.210938 -6.410156 C 11.03125 -5.644531 12.082031 -5.21875 13.1875 -5.21875 C 16.023438 -5.21875 19.003906 -7.0625 21.214844 -8.679688 C 19.882812 -6.664062 18.4375 -4.3125 16.507812 -2.808594 C 15.03125 -1.644531 12.960938 -0.453125 11.03125 -0.453125 C 10.097656 -0.453125 8.679688 -0.9375 8.679688 -2.070312 C 8.679688 -2.382812 8.933594 -2.949219 9.304688 -2.949219 C 9.472656 -2.949219 9.871094 -2.695312 10.125 -2.695312 C 10.523438 -2.695312 10.863281 -2.976562 10.863281 -3.375 C 10.863281 -3.855469 10.378906 -4.085938 9.957031 -4.085938 C 9.019531 -4.085938 8.28125 -2.976562 8.28125 -2.128906 C 8.28125 -0.425781 10.125 0 11.488281 0 C 14.605469 0 17.246094 -1.105469 19.285156 -3.488281 C 19.910156 -4.199219 20.535156 -5.359375 21.046875 -6.183594 C 21.980469 -7.65625 22.945312 -9.132812 23.796875 -10.664062 C 23.882812 -10.804688 24.078125 -11.144531 24.078125 -11.316406 C 24.078125 -11.488281 23.996094 -11.570312 23.824219 -11.570312 C 23.511719 -11.570312 22.632812 -10.691406 22.234375 -10.4375 C 19.996094 -8.90625 15.542969 -5.957031 12.847656 -5.957031 C 11.175781 -5.957031 9.957031 -6.695312 9.957031 -8.507812 Z M 27.851562 -20.535156 C 27.851562 -17.925781 24.277344 -14.71875 22.234375 -13.445312 C 18.832031 -11.316406 14.125 -9.558594 10.070312 -9.472656 C 10.550781 -11.261719 11.03125 -12.253906 12.195312 -13.726562 C 13.613281 -15.542969 15.257812 -17.101562 17.101562 -18.492188 C 18.179688 -17.328125 18.691406 -16.082031 18.691406 -14.492188 C 18.691406 -14.097656 18.605469 -13.699219 18.605469 -13.332031 C 18.605469 -13.246094 18.632812 -13.160156 18.746094 -13.160156 C 18.972656 -13.160156 19.089844 -14.523438 19.089844 -14.75 C 19.089844 -16.363281 18.464844 -17.585938 17.414062 -18.746094 C 19.511719 -20.363281 23.003906 -22.546875 25.753906 -22.546875 C 26.945312 -22.546875 27.851562 -21.753906 27.851562 -20.535156 Z M 15.941406 -19.484375 C 12.449219 -16.789062 9.757812 -13.925781 9.105469 -9.417969 C 5.617188 -9.558594 0.425781 -11.0625 0.425781 -15.371094 C 0.425781 -19.710938 5.472656 -21.328125 9.046875 -21.328125 C 11.457031 -21.328125 13.898438 -20.816406 15.941406 -19.484375 Z M 15.941406 -19.484375 "/></g></g></g></g></g></g></svg>