<svg width="1402" height="305" viewBox="0 0 1402 305" fill="none" xmlns="http://www.w3.org/2000/svg">
<path d="M584.259 237H546.913L531.396 195.183H455.652L440.135 237H402.789L476.692 52.9H510.356L584.259 237ZM493.524 92.35L466.698 164.675H520.35L493.524 92.35ZM601.748 54.478H638.568V89.983H601.748V54.478ZM636.201 237H603.852V115.494H636.201V237ZM742.068 111.812H743.383V146.528H739.701C713.927 146.528 701.566 157.574 701.566 187.293V237H669.48V115.494H701.303V141.268H701.829C708.141 122.332 722.08 111.812 742.068 111.812ZM834.077 115.494V142.583H809.092V193.605C809.092 203.336 812.511 207.281 821.979 207.281H827.502V237.263H813.3C790.419 237.263 776.743 225.691 776.743 201.232V142.583H754.388V115.494H776.743V66.839H809.092V115.494H834.077ZM903.408 240.945C871.585 240.945 845.022 217.801 845.022 176.247C845.022 134.693 871.585 111.549 903.408 111.549C923.133 111.549 936.283 119.965 943.91 132.589H944.436V115.494H976.522V237H944.436V219.905H943.91C936.283 232.529 923.133 240.945 903.408 240.945ZM911.561 210.437C931.023 210.437 944.436 196.761 944.436 176.247C944.436 155.733 931.023 142.057 911.561 142.057C892.099 142.057 878.686 155.733 878.686 176.247C878.686 196.761 892.099 210.437 911.561 210.437ZM1082.34 240.945C1062.61 240.945 1049.46 232.529 1041.83 219.905H1041.31V237H1008.96V52.9H1041.31V132.589H1041.83C1049.46 119.965 1062.61 111.549 1082.34 111.549C1114.16 111.549 1140.72 134.693 1140.72 176.247C1140.72 217.801 1114.16 240.945 1082.34 240.945ZM1074.18 210.437C1093.64 210.437 1107.06 196.761 1107.06 176.247C1107.06 155.733 1093.64 142.057 1074.18 142.057C1054.72 142.057 1041.31 155.733 1041.31 176.247C1041.31 196.761 1054.72 210.437 1074.18 210.437ZM1166.29 52.9H1198.64V237H1166.29V52.9ZM1287.67 111.549C1324.49 111.549 1346.59 134.956 1346.59 176.51V182.822H1255.85C1257.69 201.495 1271.37 212.278 1290.04 212.278C1307.4 212.278 1319.5 202.547 1326.33 195.709L1342.64 219.116C1331.86 229.11 1315.55 240.945 1290.04 240.945C1250.33 240.945 1224.55 215.171 1224.55 176.51C1224.55 137.849 1249.54 111.549 1287.67 111.549ZM1286.1 137.586C1270.58 137.586 1259.27 145.213 1256.64 162.045H1313.97C1312.92 146.528 1301.88 137.586 1286.1 137.586Z" fill="black"/>
<path d="M141.036 19.3341L23.2788 68.0606C16.7303 70.7707 16.7981 80.0721 23.3877 82.684L141.638 129.577C152.028 133.698 163.599 133.698 173.988 129.577L292.239 82.684C298.827 80.0721 298.897 70.7707 292.347 68.0606L174.591 19.3341C163.847 14.8886 151.778 14.8886 141.036 19.3341Z" fill="#FFBF00"/>
<path d="M168.312 155.184V272.329C168.312 277.901 173.931 281.716 179.11 279.663L310.877 228.518C313.885 227.325 315.858 224.419 315.858 221.184V104.039C315.858 98.4668 310.239 94.6515 305.06 96.7047L173.294 147.85C170.287 149.043 168.312 151.949 168.312 155.184Z" fill="#26B5F8"/>
<path d="M137.537 161.229L98.4313 180.11L94.4608 182.029L11.9116 221.583C6.67885 224.107 0 220.294 0 214.481V104.531C0 102.428 1.07833 100.612 2.52443 99.2443C3.12786 98.6391 3.81164 98.141 4.52219 97.7465C6.49496 96.5628 9.30861 96.2468 11.7009 97.193L136.88 146.791C143.243 149.315 143.742 158.231 137.537 161.229Z" fill="#ED3049"/>
<path d="M137.536 161.229L98.4303 180.11L2.52344 99.2443C3.12687 98.6391 3.81065 98.141 4.5212 97.7465C6.49397 96.5628 9.30762 96.2468 11.6999 97.193L136.879 146.791C143.242 149.315 143.742 158.231 137.536 161.229Z" fill="black" fill-opacity="0.25"/>
</svg>
