<svg width="1436" height="299" viewBox="0 0 1436 299" fill="none" xmlns="http://www.w3.org/2000/svg">
<path d="M121 73L69 165.5L188.5 138.5V73H121Z" fill="#FF3300"/>
<path d="M188.5 199.5L68.5 172.5L123 265H188.5V199.5Z" fill="#FF3300"/>
<path d="M80.5 261.5L60.5 175.5C57.8333 178.833 46.4 194.7 22 231.5C36.8 252.3 67.1667 260.167 80.5 261.5Z" fill="#FF3300"/>
<path d="M82.5 73L60.5 161C52.8333 151.167 34.4 126.2 22 105C36.8 89 68.5 77 82.5 73Z" fill="#FF3300"/>
<path d="M0 147L57 169L0 190V147Z" fill="#FF3300"/>
<path d="M303.567 163.877C303.567 152.468 305.889 142.518 310.532 134.027C315.175 125.404 321.61 118.77 329.835 114.127C338.06 109.351 347.48 106.963 358.093 106.963C371.758 106.963 383.034 110.412 391.923 117.311C400.944 124.077 406.981 133.629 410.032 145.967H379.983C378.391 141.191 375.671 137.476 371.824 134.823C368.109 132.037 363.466 130.644 357.894 130.644C349.934 130.644 343.632 133.563 338.989 139.4C334.346 145.105 332.024 153.264 332.024 163.877C332.024 174.358 334.346 182.517 338.989 188.354C343.632 194.059 349.934 196.911 357.894 196.911C369.171 196.911 376.534 191.87 379.983 181.787H410.032C406.981 193.727 400.944 203.213 391.923 210.244C382.902 217.275 371.625 220.791 358.093 220.791C347.48 220.791 338.06 218.469 329.835 213.826C321.61 209.05 315.175 202.417 310.532 193.926C305.889 185.303 303.567 175.286 303.567 163.877ZM496.8 107.162C505.158 107.162 512.587 109.019 519.088 112.734C525.589 116.316 530.63 121.689 534.212 128.853C537.927 135.884 539.784 144.375 539.784 154.325V219H511.924V158.106C511.924 149.35 509.735 142.65 505.357 138.007C500.979 133.231 495.009 130.843 487.447 130.843C479.752 130.843 473.65 133.231 469.139 138.007C464.761 142.65 462.572 149.35 462.572 158.106V219H434.712V71.74H462.572V122.485C466.154 117.709 470.93 113.994 476.9 111.341C482.87 108.555 489.503 107.162 496.8 107.162ZM563.383 163.479C563.383 152.335 565.572 142.451 569.95 133.828C574.461 125.205 580.497 118.571 588.059 113.928C595.754 109.285 604.311 106.963 613.73 106.963C621.956 106.963 629.12 108.621 635.222 111.938C641.458 115.255 646.433 119.434 650.147 124.475V108.754H678.206V219H650.147V202.881C646.565 208.055 641.59 212.367 635.222 215.816C628.987 219.133 621.757 220.791 613.531 220.791C604.245 220.791 595.754 218.403 588.059 213.627C580.497 208.851 574.461 202.151 569.95 193.528C565.572 184.772 563.383 174.756 563.383 163.479ZM650.147 163.877C650.147 157.111 648.821 151.34 646.167 146.564C643.514 141.655 639.932 137.941 635.421 135.42C630.911 132.767 626.068 131.44 620.894 131.44C615.72 131.44 610.944 132.7 606.566 135.221C602.188 137.742 598.606 141.456 595.82 146.365C593.167 151.141 591.84 156.846 591.84 163.479C591.84 170.112 593.167 175.95 595.82 180.991C598.606 185.9 602.188 189.681 606.566 192.334C611.077 194.987 615.853 196.314 620.894 196.314C626.068 196.314 630.911 195.054 635.421 192.533C639.932 189.88 643.514 186.165 646.167 181.389C648.821 176.48 650.147 170.643 650.147 163.877ZM737.547 125.868C741.129 120.031 745.772 115.454 751.477 112.137C757.314 108.82 763.947 107.162 771.377 107.162V136.415H764.014C755.258 136.415 748.624 138.471 744.114 142.584C739.736 146.697 737.547 153.861 737.547 164.076V219H709.687V108.754H737.547V125.868ZM837.595 106.963C845.82 106.963 853.05 108.621 859.286 111.938C865.521 115.122 870.43 119.301 874.012 124.475V108.754H902.071V219.796C902.071 230.011 900.014 239.099 895.902 247.059C891.789 255.152 885.62 261.52 877.395 266.163C869.169 270.939 859.219 273.327 847.545 273.327C831.89 273.327 819.021 269.679 808.939 262.382C798.989 255.085 793.35 245.135 792.024 232.532H819.685C821.144 237.573 824.262 241.553 829.038 244.472C833.946 247.523 839.85 249.049 846.749 249.049C854.841 249.049 861.408 246.595 866.45 241.686C871.491 236.91 874.012 229.613 874.012 219.796V202.682C870.43 207.856 865.455 212.168 859.087 215.617C852.851 219.066 845.687 220.791 837.595 220.791C828.308 220.791 819.817 218.403 812.123 213.627C804.428 208.851 798.325 202.151 793.815 193.528C789.437 184.772 787.248 174.756 787.248 163.479C787.248 152.335 789.437 142.451 793.815 133.828C798.325 125.205 804.362 118.571 811.924 113.928C819.618 109.285 828.175 106.963 837.595 106.963ZM874.012 163.877C874.012 157.111 872.685 151.34 870.032 146.564C867.378 141.655 863.796 137.941 859.286 135.42C854.775 132.767 849.933 131.44 844.759 131.44C839.585 131.44 834.809 132.7 830.431 135.221C826.053 137.742 822.471 141.456 819.685 146.365C817.031 151.141 815.705 156.846 815.705 163.479C815.705 170.112 817.031 175.95 819.685 180.991C822.471 185.9 826.053 189.681 830.431 192.334C834.941 194.987 839.717 196.314 844.759 196.314C849.933 196.314 854.775 195.054 859.286 192.533C863.796 189.88 867.378 186.165 870.032 181.389C872.685 176.48 874.012 170.643 874.012 163.877ZM1036.04 161.489C1036.04 165.469 1035.77 169.051 1035.24 172.235H954.645C955.308 180.195 958.094 186.43 963.003 190.941C967.911 195.452 973.948 197.707 981.112 197.707C991.46 197.707 998.823 193.263 1003.2 184.374H1033.25C1030.07 194.987 1023.96 203.743 1014.94 210.642C1005.92 217.408 994.843 220.791 981.709 220.791C971.095 220.791 961.543 218.469 953.053 213.826C944.695 209.05 938.128 202.35 933.352 193.727C928.708 185.104 926.387 175.154 926.387 163.877C926.387 152.468 928.708 142.451 933.352 133.828C937.995 125.205 944.496 118.571 952.854 113.928C961.212 109.285 970.83 106.963 981.709 106.963C992.189 106.963 1001.54 109.218 1009.77 113.729C1018.13 118.24 1024.56 124.674 1029.07 133.032C1033.71 141.257 1036.04 150.743 1036.04 161.489ZM1007.18 153.529C1007.05 146.365 1004.46 140.66 999.42 136.415C994.378 132.037 988.209 129.848 980.913 129.848C974.014 129.848 968.177 131.971 963.401 136.216C958.757 140.329 955.905 146.1 954.844 153.529H1007.18ZM1088.5 124.873C1092.08 119.566 1096.99 115.255 1103.23 111.938C1109.6 108.621 1116.83 106.963 1124.92 106.963C1134.34 106.963 1142.83 109.285 1150.39 113.928C1158.08 118.571 1164.12 125.205 1168.5 133.828C1173.01 142.319 1175.27 152.202 1175.27 163.479C1175.27 174.756 1173.01 184.772 1168.5 193.528C1164.12 202.151 1158.08 208.851 1150.39 213.627C1142.83 218.403 1134.34 220.791 1124.92 220.791C1116.69 220.791 1109.46 219.199 1103.23 216.015C1097.12 212.698 1092.22 208.453 1088.5 203.279V219H1060.64V71.74H1088.5V124.873ZM1146.81 163.479C1146.81 156.846 1145.42 151.141 1142.63 146.365C1139.98 141.456 1136.39 137.742 1131.88 135.221C1127.51 132.7 1122.73 131.44 1117.56 131.44C1112.51 131.44 1107.74 132.767 1103.23 135.42C1098.85 137.941 1095.27 141.655 1092.48 146.564C1089.83 151.473 1088.5 157.244 1088.5 163.877C1088.5 170.51 1089.83 176.281 1092.48 181.19C1095.27 186.099 1098.85 189.88 1103.23 192.533C1107.74 195.054 1112.51 196.314 1117.56 196.314C1122.73 196.314 1127.51 194.987 1131.88 192.334C1136.39 189.681 1139.98 185.9 1142.63 180.991C1145.42 176.082 1146.81 170.245 1146.81 163.479ZM1302.27 161.489C1302.27 165.469 1302 169.051 1301.47 172.235H1220.87C1221.54 180.195 1224.32 186.43 1229.23 190.941C1234.14 195.452 1240.18 197.707 1247.34 197.707C1257.69 197.707 1265.05 193.263 1269.43 184.374H1299.48C1296.3 194.987 1290.19 203.743 1281.17 210.642C1272.15 217.408 1261.07 220.791 1247.94 220.791C1237.32 220.791 1227.77 218.469 1219.28 213.826C1210.92 209.05 1204.36 202.35 1199.58 193.727C1194.94 185.104 1192.62 175.154 1192.62 163.877C1192.62 152.468 1194.94 142.451 1199.58 133.828C1204.22 125.205 1210.73 118.571 1219.08 113.928C1227.44 109.285 1237.06 106.963 1247.94 106.963C1258.42 106.963 1267.77 109.218 1276 113.729C1284.36 118.24 1290.79 124.674 1295.3 133.032C1299.94 141.257 1302.27 150.743 1302.27 161.489ZM1273.41 153.529C1273.28 146.365 1270.69 140.66 1265.65 136.415C1260.61 132.037 1254.44 129.848 1247.14 129.848C1240.24 129.848 1234.41 131.971 1229.63 136.216C1224.99 140.329 1222.13 146.1 1221.07 153.529H1273.41ZM1429.36 161.489C1429.36 165.469 1429.09 169.051 1428.56 172.235H1347.96C1348.63 180.195 1351.41 186.43 1356.32 190.941C1361.23 195.452 1367.27 197.707 1374.43 197.707C1384.78 197.707 1392.14 193.263 1396.52 184.374H1426.57C1423.39 194.987 1417.28 203.743 1408.26 210.642C1399.24 217.408 1388.16 220.791 1375.03 220.791C1364.42 220.791 1354.86 218.469 1346.37 213.826C1338.01 209.05 1331.45 202.35 1326.67 193.727C1322.03 185.104 1319.71 175.154 1319.71 163.877C1319.71 152.468 1322.03 142.451 1326.67 133.828C1331.31 125.205 1337.82 118.571 1346.17 113.928C1354.53 109.285 1364.15 106.963 1375.03 106.963C1385.51 106.963 1394.86 109.218 1403.09 113.729C1411.45 118.24 1417.88 124.674 1422.39 133.032C1427.03 141.257 1429.36 150.743 1429.36 161.489ZM1400.5 153.529C1400.37 146.365 1397.78 140.66 1392.74 136.415C1387.7 132.037 1381.53 129.848 1374.23 129.848C1367.33 129.848 1361.5 131.971 1356.72 136.216C1352.08 140.329 1349.22 146.1 1348.16 153.529H1400.5Z" fill="black"/>
</svg>
