<svg width="1516" height="407" viewBox="0 0 1516 407" fill="none" xmlns="http://www.w3.org/2000/svg">
<path d="M369.869 311.611C351.91 340.509 326.877 364.347 297.136 380.871C267.395 397.396 233.93 406.06 199.907 406.044C165.883 406.028 132.427 397.333 102.701 380.781C72.9757 364.229 47.9641 340.367 30.0324 311.453L101.777 266.959C112.139 283.668 126.593 297.458 143.772 307.023C160.95 316.589 180.284 321.613 199.946 321.623C219.608 321.632 238.947 316.625 256.134 307.076C273.321 297.526 287.788 283.75 298.166 267.051L369.869 311.611Z" fill="url(#paint0_linear_1160_135)"/>
<path d="M52.4844 168.219L191.728 50.0156L329.789 168.219" stroke="url(#paint1_linear_1160_135)" stroke-width="76.1229"/>
<path d="M543.197 303.726C528.644 303.726 515.144 301.447 502.695 296.888C490.422 292.154 479.726 285.491 470.609 276.9C461.667 268.309 454.654 258.227 449.569 246.655C444.484 234.908 441.942 222.021 441.942 207.994C441.942 193.967 444.484 181.168 449.569 169.596C454.654 157.849 461.667 147.679 470.609 139.088C479.726 130.497 490.422 123.922 502.695 119.363C515.144 114.629 528.644 112.262 543.197 112.262C560.204 112.262 575.371 115.243 588.696 121.204C602.197 127.165 613.418 135.757 622.36 146.978L589.222 176.96C583.261 169.947 576.686 164.599 569.497 160.917C562.484 157.235 554.594 155.394 545.827 155.394C538.288 155.394 531.362 156.621 525.05 159.076C518.738 161.531 513.303 165.125 508.744 169.859C504.361 174.418 500.854 179.941 498.224 186.428C495.769 192.915 494.542 200.104 494.542 207.994C494.542 215.884 495.769 223.073 498.224 229.56C500.854 236.047 504.361 241.658 508.744 246.392C513.303 250.951 518.738 254.457 525.05 256.912C531.362 259.367 538.288 260.594 545.827 260.594C554.594 260.594 562.484 258.753 569.497 255.071C576.686 251.389 583.261 246.041 589.222 239.028L622.36 269.01C613.418 280.056 602.197 288.647 588.696 294.784C575.371 300.745 560.204 303.726 543.197 303.726ZM641.156 300.044V104.898H691.126V300.044H641.156ZM723.601 300.044V157.498H773.571V300.044H723.601ZM748.586 141.718C739.468 141.718 732.104 139.176 726.494 134.091C720.883 129.006 718.078 122.694 718.078 115.155C718.078 107.616 720.883 101.304 726.494 96.2189C732.104 91.1343 739.468 88.5919 748.586 88.5919C757.703 88.5919 765.067 91.0466 770.678 95.9559C776.288 100.69 779.094 106.827 779.094 114.366C779.094 122.256 776.288 128.831 770.678 134.091C765.242 139.176 757.878 141.718 748.586 141.718ZM878.896 302.411C863.116 302.411 849.002 299.255 836.553 292.943C824.28 286.631 814.636 277.952 807.623 266.906C800.61 255.685 797.103 242.885 797.103 228.508C797.103 214.131 800.61 201.419 807.623 190.373C814.636 179.327 824.28 170.736 836.553 164.599C849.002 158.287 863.116 155.131 878.896 155.131C895.027 155.131 908.966 158.55 920.713 165.388C932.46 172.226 940.789 181.869 945.698 194.318L907.037 214.043C903.706 207.38 899.585 202.559 894.676 199.578C889.767 196.422 884.419 194.844 878.633 194.844C872.847 194.844 867.587 196.159 862.853 198.789C858.119 201.419 854.349 205.276 851.544 210.361C848.914 215.27 847.599 221.319 847.599 228.508C847.599 235.872 848.914 242.096 851.544 247.181C854.349 252.266 858.119 256.123 862.853 258.753C867.587 261.383 872.847 262.698 878.633 262.698C884.419 262.698 889.767 261.208 894.676 258.227C899.585 255.071 903.706 250.162 907.037 243.499L945.698 263.224C940.789 275.673 932.46 285.316 920.713 292.154C908.966 298.992 895.027 302.411 878.896 302.411ZM1005.55 273.744L1006.87 214.043L1064.99 157.498H1124.17L1059.73 224.037L1034.22 244.551L1005.55 273.744ZM963.999 300.044V104.898H1013.97V300.044H963.999ZM1068.67 300.044L1025.02 245.34L1056.05 206.942L1129.16 300.044H1068.67ZM1229.3 303.726C1202.13 303.726 1180.91 296.274 1165.66 281.371C1150.4 266.468 1142.78 245.34 1142.78 217.988V115.944H1194.85V216.41C1194.85 232.19 1197.92 243.499 1204.05 250.337C1210.37 257.175 1218.96 260.594 1229.83 260.594C1240.7 260.594 1249.2 257.175 1255.34 250.337C1261.48 243.499 1264.54 232.19 1264.54 216.41V115.944H1315.83V217.988C1315.83 245.34 1308.2 266.468 1292.95 281.371C1277.69 296.274 1256.48 303.726 1229.3 303.726ZM1438.42 302.411C1426.32 302.411 1415.98 299.781 1407.39 294.521C1398.8 289.086 1392.22 281.02 1387.66 270.325C1383.28 259.454 1381.09 245.603 1381.09 228.771C1381.09 211.764 1383.19 197.912 1387.4 187.217C1391.61 176.346 1397.92 168.281 1406.34 163.021C1414.93 157.761 1425.62 155.131 1438.42 155.131C1451.4 155.131 1463.14 158.199 1473.66 164.336C1484.36 170.297 1492.78 178.801 1498.91 189.847C1505.22 200.718 1508.38 213.692 1508.38 228.771C1508.38 243.85 1505.22 256.912 1498.91 267.958C1492.78 279.004 1484.36 287.508 1473.66 293.469C1463.14 299.43 1451.4 302.411 1438.42 302.411ZM1348.74 351.066V157.498H1396.34V181.694L1396.08 228.771L1398.71 276.111V351.066H1348.74ZM1427.9 262.698C1433.51 262.698 1438.51 261.383 1442.89 258.753C1447.45 256.123 1451.05 252.266 1453.68 247.181C1456.48 242.096 1457.88 235.96 1457.88 228.771C1457.88 221.582 1456.48 215.446 1453.68 210.361C1451.05 205.276 1447.45 201.419 1442.89 198.789C1438.51 196.159 1433.51 194.844 1427.9 194.844C1422.29 194.844 1417.21 196.159 1412.65 198.789C1408.26 201.419 1404.67 205.276 1401.87 210.361C1399.24 215.446 1397.92 221.582 1397.92 228.771C1397.92 235.96 1399.24 242.096 1401.87 247.181C1404.67 252.266 1408.26 256.123 1412.65 258.753C1417.21 261.383 1422.29 262.698 1427.9 262.698Z" fill="black"/>
<defs>
<linearGradient id="paint0_linear_1160_135" x1="42.5532" y1="317.391" x2="362.175" y2="322.592" gradientUnits="userSpaceOnUse">
<stop stop-color="#8633FD"/>
<stop offset="1" stop-color="#47C9F9"/>
</linearGradient>
<linearGradient id="paint1_linear_1160_135" x1="354.612" y1="137.25" x2="28.3709" y2="133.231" gradientUnits="userSpaceOnUse">
<stop stop-color="#FFC302"/>
<stop offset="1" stop-color="#FE07EB"/>
</linearGradient>
</defs>
</svg>
