<svg width="1702" height="503" viewBox="0 0 1702 503" fill="none" xmlns="http://www.w3.org/2000/svg">
<path d="M71 297C70.9957 258.5 82.9922 234.5 105.492 216.5C127.992 198.5 187.151 172.293 203.492 147.5C217.992 125.5 217.992 112.5 217.992 88" stroke="#FF3C00" stroke-width="45"/>
<path d="M156.492 415C156.488 376.5 168.484 352.5 190.984 334.5C213.484 316.5 272.644 290.293 288.984 265.5C303.484 243.5 303.484 230.5 303.484 206" stroke="#FF3C00" stroke-width="45"/>
<path d="M533.404 398H486.208V94.285H533.404V214.023C548.262 191.736 570.549 180.811 600.265 180.811C650.957 180.811 679.799 212.275 679.799 266.026V398H632.603V272.581C632.603 238.058 617.308 220.578 586.281 220.578C555.254 220.578 533.404 240.243 533.404 273.892V398ZM916.639 371.78C895.663 392.756 869.443 403.244 837.542 403.244C805.641 403.244 779.421 392.756 758.445 371.78C737.032 350.804 726.544 324.147 726.544 291.809C726.544 259.471 737.032 232.814 758.445 211.838C779.421 191.299 805.641 180.811 837.542 180.811C869.443 180.811 895.663 191.299 916.639 211.838C937.615 232.814 948.103 259.471 948.103 291.809C948.103 324.147 937.615 350.804 916.639 371.78ZM792.968 345.123C803.893 358.233 818.751 364.788 837.542 364.788C856.333 364.788 871.191 358.233 882.553 345.123C893.478 332.013 899.159 314.096 899.159 291.809C899.159 247.672 874.25 219.267 837.542 219.267C800.397 219.267 775.925 246.798 775.925 291.809C775.925 314.096 781.606 332.013 792.968 345.123ZM1069.15 403.244C1025.88 403.244 1004.03 380.083 1004.03 333.324V225.822H971.259V186.055H1005.35L1016.27 123.564H1051.67V186.055H1136.01V225.822H1051.67V332.013C1051.67 351.678 1058.66 361.292 1073.08 361.292C1086.63 361.292 1098.43 349.056 1109.35 324.584L1146.06 343.375C1128.14 383.142 1102.36 403.244 1069.15 403.244ZM1205.43 150.221C1188.39 150.221 1176.15 138.422 1176.15 122.253C1176.15 106.084 1188.39 93.848 1205.43 93.848C1221.6 93.848 1234.71 106.084 1234.71 122.253C1234.71 137.985 1221.6 150.221 1205.43 150.221ZM1169.16 495.014C1148.18 495.014 1130.7 489.333 1117.15 477.534L1134.63 440.389C1142.94 450.44 1152.11 455.247 1162.17 455.247C1175.28 455.247 1181.83 446.944 1181.83 429.901V186.055H1229.03V430.775C1229.03 476.223 1204.12 495.014 1169.16 495.014ZM1360.54 403.244C1312.03 403.244 1279.25 377.024 1279.25 336.383C1279.25 317.592 1287.12 301.86 1302.85 288.75C1318.15 276.077 1337.81 269.522 1361.41 269.522C1385.44 269.522 1405.98 277.388 1422.59 292.683V266.9C1422.59 236.747 1406.42 219.267 1378.02 219.267C1349.17 219.267 1331.26 234.125 1324.26 263.404L1281 254.227C1292.8 208.779 1328.63 180.811 1379.76 180.811C1435.7 180.811 1470.22 210.964 1470.22 267.337V398H1424.34V371.343C1409.04 392.756 1387.63 403.244 1360.54 403.244ZM1369.28 368.284C1390.25 368.284 1408.17 357.796 1422.59 336.82V330.265C1408.17 312.785 1390.25 304.045 1369.28 304.045C1344.8 304.045 1328.2 317.155 1328.2 335.946C1328.2 355.174 1344.37 368.284 1369.28 368.284ZM1578.97 398H1531.78V186.055H1577.66V222.763C1589.46 196.106 1609.56 182.559 1637.97 182.559C1671.62 182.559 1696.53 206.594 1696.53 243.739C1696.53 254.227 1694.78 265.152 1690.84 276.514L1647.58 272.144C1648.89 263.404 1649.33 257.723 1649.33 254.664C1649.33 232.814 1640.15 221.889 1622.24 221.889C1597.76 221.889 1578.97 250.294 1578.97 292.683V398Z" fill="#323232"/>
</svg>
