<svg width="1911" height="558" viewBox="0 0 1911 558" fill="none" xmlns="http://www.w3.org/2000/svg">
<rect x="1310.95" width="599.135" height="389.885" rx="62.5962" fill="#44B06B"/>
<path d="M1310.95 468.577V336.231L1416.46 369.317L1310.95 468.577Z" fill="#44B06B"/>
<path d="M1442.99 298.096V81.7889H1470.98V298.096H1442.99ZM1513.68 298.096V143.591H1541.66V298.096H1513.68ZM1527.67 113.856C1522.23 113.856 1517.66 112.107 1513.97 108.609C1510.47 105.11 1508.72 100.835 1508.72 95.7818C1508.72 90.5345 1510.47 86.1617 1513.97 82.6635C1517.66 79.1652 1522.23 77.4161 1527.67 77.4161C1533.11 77.4161 1537.58 79.1652 1541.08 82.6635C1544.77 85.9674 1546.62 90.1458 1546.62 95.1988C1546.62 100.446 1544.87 104.916 1541.37 108.609C1537.87 112.107 1533.31 113.856 1527.67 113.856ZM1637.42 299.845C1621.88 299.845 1609.83 295.667 1601.28 287.31C1592.73 278.953 1588.45 267.001 1588.45 251.453V109.775H1616.44V250.287C1616.44 258.644 1618.48 265.057 1622.56 269.527C1626.83 273.997 1632.86 276.232 1640.63 276.232C1649.38 276.232 1656.67 273.803 1662.5 268.944L1671.24 289.059C1666.97 292.752 1661.82 295.473 1655.79 297.222C1649.96 298.971 1643.84 299.845 1637.42 299.845ZM1562.21 166.621V143.591H1660.75V166.621H1562.21ZM1758.02 299.845C1741.5 299.845 1726.92 296.444 1714.29 289.642C1701.85 282.84 1692.14 273.511 1685.14 261.656C1678.34 249.801 1674.94 236.197 1674.94 220.844C1674.94 205.49 1678.24 191.886 1684.85 180.031C1691.65 168.176 1700.88 158.944 1712.54 152.337C1724.4 145.534 1737.71 142.133 1752.48 142.133C1767.44 142.133 1780.66 145.437 1792.13 152.045C1803.59 158.653 1812.53 167.981 1818.95 180.031C1825.55 191.886 1828.86 205.782 1828.86 221.718C1828.86 222.884 1828.76 224.245 1828.57 225.799C1828.57 227.354 1828.47 228.812 1828.28 230.172H1696.8V210.057H1813.7L1802.33 217.054C1802.52 207.142 1800.48 198.299 1796.21 190.526C1791.93 182.752 1786 176.727 1778.43 172.451C1771.04 167.981 1762.39 165.746 1752.48 165.746C1742.76 165.746 1734.11 167.981 1726.53 172.451C1718.96 176.727 1713.03 182.849 1708.75 190.817C1704.48 198.591 1702.34 207.531 1702.34 217.637V222.301C1702.34 232.602 1704.67 241.833 1709.34 249.996C1714.19 257.964 1720.9 264.183 1729.45 268.653C1738 273.123 1747.82 275.358 1758.89 275.358C1768.03 275.358 1776.29 273.803 1783.67 270.693C1791.25 267.584 1797.86 262.92 1803.5 256.7L1818.95 274.775C1811.95 282.937 1803.2 289.156 1792.71 293.432C1782.41 297.707 1770.85 299.845 1758.02 299.845Z" fill="white"/>
<path d="M293.401 250.486C309.959 250.486 324.578 253.72 337.256 260.188C350.192 266.656 360.283 276.617 367.527 290.071C374.772 303.267 378.394 320.343 378.394 341.3V460.058H329.882V347.51C329.882 329.14 325.871 315.427 317.851 306.372C309.83 297.316 298.317 292.788 283.31 292.788C272.702 292.788 263.259 295.117 254.979 299.774C246.959 304.431 240.62 311.287 235.962 320.343C231.564 329.399 229.365 340.912 229.365 354.884V460.058H180.853V347.51C180.853 329.14 176.842 315.427 168.822 306.372C160.801 297.316 149.288 292.788 134.281 292.788C123.673 292.788 114.23 295.117 105.95 299.774C97.9296 304.431 91.5907 311.287 86.9335 320.343C82.5351 329.399 80.3359 340.912 80.3359 354.884V460.058H31.8239V252.814H78.0073V307.924L69.8573 291.624C76.843 278.17 86.9335 267.95 100.129 260.964C113.583 253.979 128.848 250.486 145.924 250.486C165.329 250.486 182.146 255.272 196.377 264.845C210.866 274.418 220.439 288.907 225.096 308.312L206.079 301.714C212.806 286.191 223.932 273.771 239.455 264.457C254.979 255.143 272.961 250.486 293.401 250.486ZM557.339 460.058V418.143L554.622 409.217V335.867C554.622 321.637 550.353 310.641 541.815 302.879C533.277 294.858 520.34 290.848 503.005 290.848C491.363 290.848 479.849 292.659 468.465 296.281C457.339 299.903 447.896 304.949 440.134 311.417L421.117 276.1C432.243 267.562 445.438 261.223 460.703 257.083C476.227 252.685 492.268 250.486 508.827 250.486C538.84 250.486 561.996 257.73 578.296 272.219C594.855 286.449 603.134 308.571 603.134 338.584V460.058H557.339ZM492.139 462.774C476.615 462.774 463.032 460.187 451.389 455.012C439.746 449.579 430.69 442.205 424.222 432.891C418.012 423.318 414.908 412.581 414.908 400.679C414.908 389.036 417.624 378.557 423.058 369.243C428.75 359.929 437.935 352.555 450.612 347.122C463.29 341.688 480.108 338.972 501.065 338.972H561.22V371.184H504.558C487.999 371.184 476.874 373.9 471.182 379.334C465.489 384.508 462.643 390.976 462.643 398.738C462.643 407.535 466.136 414.521 473.122 419.696C480.108 424.87 489.81 427.458 502.229 427.458C514.131 427.458 524.739 424.741 534.053 419.308C543.626 413.874 550.483 405.854 554.622 395.246L562.772 424.353C558.115 436.513 549.706 445.957 537.546 452.684C525.644 459.411 510.509 462.774 492.139 462.774ZM654.663 460.058V252.814H703.175V460.058H654.663ZM679.113 218.662C670.057 218.662 662.554 215.816 656.603 210.124C650.911 204.432 648.065 197.575 648.065 189.555C648.065 181.275 650.911 174.419 656.603 168.985C662.554 163.293 670.057 160.447 679.113 160.447C688.168 160.447 695.542 163.164 701.234 168.597C707.185 173.772 710.16 180.37 710.16 188.39C710.16 196.928 707.314 204.173 701.622 210.124C695.93 215.816 688.427 218.662 679.113 218.662ZM756.116 460.058V172.09H804.628V460.058H756.116ZM954.981 462.774C931.954 462.774 911.773 458.247 894.438 449.191C877.362 439.877 864.037 427.199 854.464 411.158C845.15 395.116 840.493 376.876 840.493 356.436C840.493 335.737 845.021 317.497 854.076 301.714C863.391 285.673 876.068 273.125 892.11 264.069C908.41 255.013 926.909 250.486 947.607 250.486C967.789 250.486 985.77 254.884 1001.55 263.681C1017.34 272.478 1029.75 284.897 1038.81 300.938C1047.87 316.979 1052.39 335.867 1052.39 357.6C1052.39 359.67 1052.26 361.999 1052.01 364.586C1052.01 367.173 1051.88 369.631 1051.62 371.96H878.914V339.748H1026L1006.99 349.838C1007.24 337.937 1004.79 327.458 999.612 318.403C994.438 309.347 987.323 302.232 978.267 297.057C969.47 291.883 959.25 289.295 947.607 289.295C935.706 289.295 925.227 291.883 916.172 297.057C907.375 302.232 900.389 309.476 895.215 318.791C890.299 327.846 887.841 338.584 887.841 351.003V358.765C887.841 371.184 890.687 382.18 896.379 391.753C902.071 401.326 910.092 408.7 920.441 413.874C930.79 419.049 942.692 421.636 956.146 421.636C967.789 421.636 978.267 419.825 987.581 416.203C996.896 412.581 1005.18 406.888 1012.42 399.127L1038.42 429.01C1029.11 439.877 1017.34 448.285 1003.11 454.236C989.134 459.928 973.092 462.774 954.981 462.774ZM1088.26 460.058V252.814H1134.44V309.864L1129.01 293.176C1135.22 279.205 1144.92 268.597 1158.12 261.352C1171.57 254.108 1188.26 250.486 1208.18 250.486V296.669C1206.11 296.152 1204.17 295.893 1202.36 295.893C1200.55 295.634 1198.74 295.505 1196.93 295.505C1178.56 295.505 1163.94 300.938 1153.07 311.805C1142.21 322.413 1136.77 338.325 1136.77 359.541V460.058H1088.26Z" fill="black"/>
</svg>
