<svg width="2006" height="501" viewBox="0 0 2006 501" fill="none" xmlns="http://www.w3.org/2000/svg">
<path d="M318.075 134.368L250.655 367H216.611L162.542 179.76L106.47 367L72.7601 367.334L7.67652 134.368H40.0514L90.7832 331.621L146.855 134.368H180.899L234.301 330.954L285.366 134.368H318.075ZM508.188 268.54C508.188 274.325 507.854 280.444 507.187 286.897H360.999C362.112 304.92 368.231 319.05 379.356 329.285C390.704 339.298 404.388 344.304 420.409 344.304C433.537 344.304 444.44 341.3 453.117 335.293C462.018 329.062 468.248 320.83 471.808 310.594H504.517C499.622 328.172 489.831 342.524 475.146 353.65C460.46 364.552 442.215 370.004 420.409 370.004C403.053 370.004 387.478 366.11 373.682 358.322C360.109 350.534 349.429 339.52 341.641 325.28C333.853 310.817 329.959 294.129 329.959 275.216C329.959 256.302 333.742 239.726 341.307 225.485C348.873 211.244 359.442 200.342 373.015 192.776C386.81 184.989 402.608 181.095 420.409 181.095C437.764 181.095 453.117 184.877 466.468 192.443C479.818 200.008 490.054 210.466 497.174 223.816C504.517 236.944 508.188 251.852 508.188 268.54ZM476.815 262.199C476.815 250.628 474.256 240.727 469.138 232.494C464.02 224.039 457.011 217.697 448.111 213.47C439.433 209.019 429.754 206.794 419.074 206.794C403.721 206.794 390.593 211.69 379.69 221.48C369.009 231.27 362.891 244.843 361.333 262.199H476.815ZM568.645 218.142C574.876 207.239 583.998 198.339 596.014 191.441C608.029 184.544 621.713 181.095 637.066 181.095C653.532 181.095 668.329 184.989 681.457 192.776C694.585 200.564 704.931 211.578 712.497 225.819C720.062 239.837 723.845 256.191 723.845 274.882C723.845 293.35 720.062 309.815 712.497 324.278C704.931 338.742 694.473 349.978 681.123 357.988C667.995 365.999 653.31 370.004 637.066 370.004C621.268 370.004 607.362 366.555 595.346 359.657C583.553 352.759 574.653 343.97 568.645 333.29V367H538.273V120.016H568.645V218.142ZM692.805 274.882C692.805 261.086 690.023 249.071 684.461 238.835C678.898 228.6 671.333 220.812 661.765 215.472C652.419 210.132 642.073 207.462 630.725 207.462C619.6 207.462 609.253 210.243 599.685 215.806C590.34 221.146 582.775 229.045 576.989 239.503C571.427 249.738 568.645 261.643 568.645 275.216C568.645 289.011 571.427 301.138 576.989 311.596C582.775 321.831 590.34 329.73 599.685 335.293C609.253 340.633 619.6 343.303 630.725 343.303C642.073 343.303 652.419 340.633 661.765 335.293C671.333 329.73 678.898 321.831 684.461 311.596C690.023 301.138 692.805 288.9 692.805 274.882Z" fill="black"/>
<path d="M842.244 159.066V236.833H927.019V261.865H842.244V341.968H937.032V367H811.872V134.034H937.032V159.066H842.244ZM1062.1 180.761C1084.35 180.761 1102.37 187.547 1116.17 201.12C1129.96 214.471 1136.86 233.829 1136.86 259.195V367H1106.82V263.534C1106.82 245.288 1102.26 231.381 1093.14 221.814C1084.02 212.023 1071.55 207.128 1055.76 207.128C1039.74 207.128 1026.94 212.135 1017.37 222.147C1008.03 232.16 1003.36 246.734 1003.36 265.87V367H972.984V184.099H1003.36V210.132C1009.36 200.787 1017.49 193.555 1027.72 188.437C1038.18 183.32 1049.64 180.761 1062.1 180.761ZM1251.9 181.095C1267.7 181.095 1281.49 184.544 1293.29 191.441C1305.3 198.339 1314.2 207.017 1319.99 217.475V184.099H1350.69V371.005C1350.69 387.693 1347.13 402.49 1340.01 415.395C1332.89 428.523 1322.66 438.759 1309.31 446.102C1296.18 453.444 1280.82 457.116 1263.25 457.116C1239.22 457.116 1219.19 451.442 1203.17 440.094C1187.15 428.746 1177.69 413.282 1174.8 393.701H1204.84C1208.18 404.826 1215.07 413.727 1225.53 420.402C1235.99 427.3 1248.56 430.749 1263.25 430.749C1279.93 430.749 1293.51 425.52 1303.97 415.062C1314.65 404.604 1319.99 389.918 1319.99 371.005V332.623C1313.98 343.303 1305.08 352.203 1293.29 359.323C1281.49 366.444 1267.7 370.004 1251.9 370.004C1235.66 370.004 1220.86 365.999 1207.51 357.988C1194.38 349.978 1184.03 338.742 1176.47 324.278C1168.9 309.815 1165.12 293.35 1165.12 274.882C1165.12 256.191 1168.9 239.837 1176.47 225.819C1184.03 211.578 1194.38 200.564 1207.51 192.776C1220.86 184.989 1235.66 181.095 1251.9 181.095ZM1319.99 275.216C1319.99 261.42 1317.2 249.405 1311.64 239.169C1306.08 228.934 1298.51 221.146 1288.95 215.806C1279.6 210.243 1269.25 207.462 1257.91 207.462C1246.56 207.462 1236.21 210.132 1226.87 215.472C1217.52 220.812 1210.07 228.6 1204.5 238.835C1198.94 249.071 1196.16 261.086 1196.16 274.882C1196.16 288.9 1198.94 301.138 1204.5 311.596C1210.07 321.831 1217.52 329.73 1226.87 335.293C1236.21 340.633 1246.56 343.303 1257.91 343.303C1269.25 343.303 1279.6 340.633 1288.95 335.293C1298.51 329.73 1306.08 321.831 1311.64 311.596C1317.2 301.138 1319.99 289.011 1319.99 275.216ZM1380.66 274.882C1380.66 256.191 1384.45 239.837 1392.01 225.819C1399.58 211.578 1409.92 200.564 1423.05 192.776C1436.4 184.989 1451.2 181.095 1467.44 181.095C1483.46 181.095 1497.37 184.544 1509.16 191.441C1520.96 198.339 1529.75 207.017 1535.53 217.475V184.099H1566.24V367H1535.53V332.956C1529.52 343.637 1520.51 352.537 1508.5 359.657C1496.7 366.555 1482.91 370.004 1467.11 370.004C1450.87 370.004 1436.18 365.999 1423.05 357.988C1409.92 349.978 1399.58 338.742 1392.01 324.278C1384.45 309.815 1380.66 293.35 1380.66 274.882ZM1535.53 275.216C1535.53 261.42 1532.75 249.405 1527.19 239.169C1521.62 228.934 1514.06 221.146 1504.49 215.806C1495.15 210.243 1484.8 207.462 1473.45 207.462C1462.1 207.462 1451.76 210.132 1442.41 215.472C1433.07 220.812 1425.61 228.6 1420.05 238.835C1414.49 249.071 1411.7 261.086 1411.7 274.882C1411.7 288.9 1414.49 301.138 1420.05 311.596C1425.61 321.831 1433.07 329.73 1442.41 335.293C1451.76 340.633 1462.1 343.303 1473.45 343.303C1484.8 343.303 1495.15 340.633 1504.49 335.293C1514.06 329.73 1521.62 321.831 1527.19 311.596C1532.75 301.138 1535.53 289.011 1535.53 275.216ZM1682.99 181.095C1698.79 181.095 1712.58 184.544 1724.37 191.441C1736.39 198.339 1745.29 207.017 1751.07 217.475V184.099H1781.78V371.005C1781.78 387.693 1778.22 402.49 1771.1 415.395C1763.98 428.523 1753.74 438.759 1740.39 446.102C1727.27 453.444 1711.91 457.116 1694.34 457.116C1670.3 457.116 1650.28 451.442 1634.26 440.094C1618.24 428.746 1608.78 413.282 1605.89 393.701H1635.93C1639.26 404.826 1646.16 413.727 1656.62 420.402C1667.08 427.3 1679.65 430.749 1694.34 430.749C1711.02 430.749 1724.6 425.52 1735.05 415.062C1745.73 404.604 1751.07 389.918 1751.07 371.005V332.623C1745.07 343.303 1736.17 352.203 1724.37 359.323C1712.58 366.444 1698.79 370.004 1682.99 370.004C1666.74 370.004 1651.95 365.999 1638.6 357.988C1625.47 349.978 1615.12 338.742 1607.56 324.278C1599.99 309.815 1596.21 293.35 1596.21 274.882C1596.21 256.191 1599.99 239.837 1607.56 225.819C1615.12 211.578 1625.47 200.564 1638.6 192.776C1651.95 184.989 1666.74 181.095 1682.99 181.095ZM1751.07 275.216C1751.07 261.42 1748.29 249.405 1742.73 239.169C1737.17 228.934 1729.6 221.146 1720.03 215.806C1710.69 210.243 1700.34 207.462 1688.99 207.462C1677.65 207.462 1667.3 210.132 1657.95 215.472C1648.61 220.812 1641.16 228.6 1635.59 238.835C1630.03 249.071 1627.25 261.086 1627.25 274.882C1627.25 288.9 1630.03 301.138 1635.59 311.596C1641.16 321.831 1648.61 329.73 1657.95 335.293C1667.3 340.633 1677.65 343.303 1688.99 343.303C1700.34 343.303 1710.69 340.633 1720.03 335.293C1729.6 329.73 1737.17 321.831 1742.73 311.596C1748.29 301.138 1751.07 289.011 1751.07 275.216ZM1989.98 268.54C1989.98 274.325 1989.65 280.444 1988.98 286.897H1842.79C1843.91 304.92 1850.02 319.05 1861.15 329.285C1872.5 339.298 1886.18 344.304 1902.2 344.304C1915.33 344.304 1926.23 341.3 1934.91 335.293C1943.81 329.062 1950.04 320.83 1953.6 310.594H1986.31C1981.42 328.172 1971.63 342.524 1956.94 353.65C1942.25 364.552 1924.01 370.004 1902.2 370.004C1884.85 370.004 1869.27 366.11 1855.48 358.322C1841.9 350.534 1831.22 339.52 1823.43 325.28C1815.65 310.817 1811.75 294.129 1811.75 275.216C1811.75 256.302 1815.54 239.726 1823.1 225.485C1830.67 211.244 1841.24 200.342 1854.81 192.776C1868.6 184.989 1884.4 181.095 1902.2 181.095C1919.56 181.095 1934.91 184.877 1948.26 192.443C1961.61 200.008 1971.85 210.466 1978.97 223.816C1986.31 236.944 1989.98 251.852 1989.98 268.54ZM1958.61 262.199C1958.61 250.628 1956.05 240.727 1950.93 232.494C1945.81 224.039 1938.81 217.697 1929.9 213.47C1921.23 209.019 1911.55 206.794 1900.87 206.794C1885.51 206.794 1872.39 211.69 1861.48 221.48C1850.8 231.27 1844.68 244.843 1843.13 262.199H1958.61Z" fill="#0061FF"/>
</svg>
